<?xml version="1.0" encoding="UTF-8" standalone="no"?> <svg xmlns="http://www.w3.org/2000/svg" viewBox="0 0 64 64"><g id="Solid"><path d="M57,2H3A1,1,0,0,0,2,3V6a1,1,0,0,0,.4.8L6,9.5V55a1,1,0,0,0,1,1H8v5a1,1,0,0,0,1,1h5a1,1,0,0,0,.895-.553L17.618,56H48.382l2.723,5.447A1,1,0,0,0,52,62h5a1,1,0,0,0,1-1V56h3a1,1,0,0,0,1-1V7A5.006,5.006,0,0,0,57,2ZM13.382,60H10V56h5.382ZM25,52H11a1,1,0,0,1,0-2H25a1,1,0,0,1,0,2Zm6,0H29a1,1,0,0,1,0-2h2a1,1,0,0,1,0,2Zm11-6H8V10H37V23a1,1,0,0,0,.293.707L42,28.414Zm8-34H47a1,1,0,0,0-1,1V25a1,1,0,0,0,1,1h3v2H47a1,1,0,0,0-1,1V41a1,1,0,0,0,1,1h3v4H44V28a1,1,0,0,0-.293-.707L39,22.586V10H50Zm6,48H52.618l-2-4H56Zm4-15H59a1,1,0,0,1,0-2h1Zm0-6H59a1,1,0,0,1,0-2h1Zm0-6H59a1,1,0,0,1,0-2h1Zm0-6H59a1,1,0,0,1,0-2h1Zm0-6H59a1,1,0,0,1,0-2h1Zm0-9.547c-1,.7-3.759,2.591-5.564,3.825A1,1,0,0,0,54,16.1V48.923a1,1,0,0,0,.544.89L60,52.611V54H52V10h8Z"/><path d="M11,27h3a1,1,0,0,0,1,1H29a1,1,0,0,0,1-1h3a1,1,0,0,0,1-1V14a1,1,0,0,0-1-1H30a1,1,0,0,0-1-1H15a1,1,0,0,0-1,1H11a1,1,0,0,0-1,1V26A1,1,0,0,0,11,27ZM30,15h2V25H30Zm-7-1h2v4a1,1,0,0,1-2,0Zm0,8a1,1,0,0,1,2,0v4H23Zm-4-8h2v4a1,1,0,0,1-2,0Zm0,8a1,1,0,0,1,2,0v4H19Zm-7-7h2V25H12Z"/><rect x="10" y="30" width="26" height="6" rx="1"/><rect x="10" y="38" width="26" height="6" rx="1"/><circle cx="39" cy="41" r="1"/><circle cx="39" cy="33" r="1"/><circle cx="42" cy="15" r="1"/><circle cx="42" cy="21" r="1"/></g></svg>