<?xml version="1.0" encoding="UTF-8" standalone="no"?> <svg width="48" height="48" viewBox="0 0 48 48" fill="none" xmlns="http://www.w3.org/2000/svg">
<path d="M41 4H7C6.20435 4 5.44129 4.31607 4.87868 4.87868C4.31607 5.44129 4 6.20435 4 7V41C4 41.7957 4.31607 42.5587 4.87868 43.1213C5.44129 43.6839 6.20435 44 7 44H41C41.7957 44 42.5587 43.6839 43.1213 43.1213C43.6839 42.5587 44 41.7957 44 41V7C44 6.20435 43.6839 5.44129 43.1213 4.87868C42.5587 4.31607 41.7957 4 41 4ZM42 41C42 41.2652 41.8946 41.5196 41.7071 41.7071C41.5196 41.8946 41.2652 42 41 42H7C6.73478 42 6.48043 41.8946 6.29289 41.7071C6.10536 41.5196 6 41.2652 6 41V7C6 6.73478 6.10536 6.48043 6.29289 6.29289C6.48043 6.10536 6.73478 6 7 6H41C41.2652 6 41.5196 6.10536 41.7071 6.29289C41.8946 6.48043 42 6.73478 42 7V41Z" fill="black"/>
<path d="M24 8C20.8355 8 17.7421 8.93838 15.1109 10.6965C12.4797 12.4546 10.4289 14.9534 9.21793 17.8771C8.00693 20.8007 7.69008 24.0177 8.30744 27.1214C8.92481 30.2251 10.4487 33.0761 12.6863 35.3137C14.9239 37.5513 17.7749 39.0752 20.8786 39.6926C23.9823 40.3099 27.1993 39.9931 30.1229 38.7821C33.0466 37.5711 35.5454 35.5203 37.3035 32.8891C39.0616 30.2579 40 27.1645 40 24C39.9952 19.758 38.308 15.6911 35.3085 12.6916C32.3089 9.692 28.242 8.00476 24 8V8ZM24 38C21.2311 38 18.5243 37.1789 16.222 35.6406C13.9197 34.1022 12.1253 31.9157 11.0657 29.3576C10.0061 26.7994 9.72882 23.9845 10.269 21.2687C10.8092 18.553 12.1426 16.0584 14.1005 14.1005C16.0584 12.1426 18.553 10.8092 21.2687 10.269C23.9845 9.72881 26.7994 10.0061 29.3576 11.0657C31.9157 12.1253 34.1022 13.9197 35.6406 16.222C37.1789 18.5243 38 21.2311 38 24C37.996 27.7118 36.5198 31.2705 33.8951 33.8951C31.2705 36.5198 27.7118 37.996 24 38Z" fill="black"/>
<path d="M9 10C9.55228 10 10 9.55228 10 9C10 8.44772 9.55228 8 9 8C8.44772 8 8 8.44772 8 9C8 9.55228 8.44772 10 9 10Z" fill="black"/>
<path d="M39 10C39.5523 10 40 9.55228 40 9C40 8.44772 39.5523 8 39 8C38.4477 8 38 8.44772 38 9C38 9.55228 38.4477 10 39 10Z" fill="black"/>
<path d="M9 40C9.55228 40 10 39.5523 10 39C10 38.4477 9.55228 38 9 38C8.44772 38 8 38.4477 8 39C8 39.5523 8.44772 40 9 40Z" fill="black"/>
<path d="M39 40C39.5523 40 40 39.5523 40 39C40 38.4477 39.5523 38 39 38C38.4477 38 38 38.4477 38 39C38 39.5523 38.4477 40 39 40Z" fill="black"/>
<path d="M35.554 24.82C35.4314 24.71 35.2835 24.6321 35.1236 24.593C34.9636 24.5539 34.7965 24.5549 34.637 24.596C33.2788 24.9517 31.8567 24.9883 30.482 24.703C30.1652 24.6356 29.8524 24.5508 29.545 24.449C30.6956 24.1369 31.771 23.5949 32.7065 22.8559C33.6419 22.1169 34.418 21.1961 34.988 20.149C35.0614 20.0159 35.1035 19.8679 35.1112 19.7161C35.1188 19.5643 35.0917 19.4128 35.032 19.273C34.242 17.4244 32.9987 15.8048 31.417 14.564C31.2876 14.4619 31.135 14.3933 30.9728 14.3644C30.8105 14.3355 30.6436 14.3472 30.487 14.3984C30.3303 14.4495 30.1887 14.5386 30.0748 14.6577C29.9609 14.7768 29.8781 14.9222 29.834 15.081C29.4632 16.4351 28.7842 17.685 27.85 18.733C27.6326 18.9741 27.4023 19.2031 27.16 19.419C27.3086 18.8588 27.4017 18.2854 27.438 17.707C27.5381 15.9015 27.0943 14.1076 26.164 12.557C26.0855 12.4267 25.9783 12.316 25.8506 12.2333C25.7229 12.1506 25.578 12.0982 25.427 12.08C23.9092 11.897 22.3703 12.007 20.894 12.404C20.4346 12.5281 19.9828 12.6791 19.541 12.856C19.3872 12.917 19.251 13.0152 19.1445 13.1417C19.038 13.2683 18.9646 13.4193 18.9308 13.5812C18.897 13.7432 18.9039 13.9109 18.9509 14.0695C18.9979 14.2281 19.0835 14.3726 19.2 14.49C20.1873 15.488 20.9304 16.701 21.371 18.034C21.472 18.3447 21.5555 18.6609 21.621 18.981C20.7785 18.1367 19.7727 17.473 18.6651 17.0305C17.5575 16.5879 16.3713 16.3758 15.179 16.407C15.027 16.4099 14.8776 16.4474 14.7423 16.5168C14.6069 16.5861 14.4892 16.6853 14.398 16.807C13.4806 18.0297 12.8064 19.4172 12.412 20.894C12.2895 21.3547 12.1944 21.8221 12.127 22.294C12.1046 22.4563 12.1224 22.6215 12.1789 22.7753C12.2354 22.929 12.3287 23.0666 12.4508 23.1758C12.5728 23.285 12.7199 23.3626 12.8789 23.4017C13.038 23.4408 13.2042 23.4402 13.363 23.4C14.7213 23.0447 16.1432 23.0081 17.518 23.293C17.8377 23.3611 18.1535 23.4465 18.464 23.549C17.3112 23.8564 16.2331 24.3957 15.2957 25.1338C14.3583 25.8719 13.5812 26.7934 13.012 27.842C12.9386 27.9751 12.8964 28.1231 12.8888 28.2749C12.8812 28.4267 12.9083 28.5782 12.968 28.718C13.5685 30.124 14.4331 31.4018 15.515 32.482C15.8522 32.8176 16.2088 33.1331 16.583 33.427C16.7593 33.5662 16.9774 33.6419 17.202 33.642C17.3076 33.6417 17.4126 33.6248 17.513 33.592C17.6696 33.5409 17.8111 33.4519 17.925 33.3329C18.039 33.2139 18.1217 33.0687 18.166 32.91C18.5368 31.5559 19.2158 30.306 20.15 29.258C20.3673 29.0169 20.5977 28.7879 20.84 28.572C20.6919 29.1323 20.5988 29.7057 20.562 30.284C20.4618 32.0895 20.9056 33.8835 21.836 35.434C21.9145 35.5643 22.0216 35.675 22.1493 35.7577C22.2771 35.8404 22.4219 35.8928 22.573 35.911C23.0491 35.969 23.5283 35.9987 24.008 36C25.0548 36 26.0971 35.8622 27.108 35.59C27.5678 35.466 28.0199 35.3151 28.462 35.138C28.6144 35.0763 28.7492 34.978 28.8546 34.8518C28.9599 34.7256 29.0325 34.5753 29.066 34.4143C29.0994 34.2533 29.0926 34.0866 29.0462 33.9288C28.9998 33.7711 28.9152 33.6272 28.8 33.51C27.8125 32.5117 27.0694 31.2983 26.629 29.965C26.5278 29.6547 26.4443 29.3388 26.379 29.019C27.2024 29.8455 28.1823 30.4995 29.2615 30.9426C30.3407 31.3858 31.4974 31.6093 32.664 31.6H32.824C32.976 31.5971 33.1254 31.5595 33.2607 31.4902C33.396 31.4209 33.5138 31.3217 33.605 31.2C34.8116 29.592 35.5928 27.7054 35.876 25.715C35.9008 25.5508 35.8844 25.383 35.8282 25.2268C35.772 25.0705 35.6777 24.9307 35.554 24.82V24.82ZM18.654 27.93C17.865 28.811 17.2234 29.8135 16.754 30.899C16.0463 30.1585 15.4577 29.3128 15.009 28.392C15.6746 27.3555 16.6063 26.5167 17.7067 25.9631C18.8071 25.4096 20.036 25.1616 21.265 25.245C21.3288 25.3839 21.4034 25.5176 21.488 25.645C20.426 26.2467 19.47 27.0186 18.658 27.93H18.654ZM21.314 22.655C20.2628 22.0333 19.1165 21.5887 17.921 21.339C16.7642 21.0966 15.5759 21.0429 14.402 21.18C14.6898 20.1967 15.1284 19.2639 15.702 18.415C16.9324 18.4741 18.1244 18.8619 19.154 19.5382C20.1836 20.2144 21.013 21.1543 21.556 22.26C21.4665 22.3853 21.3869 22.5173 21.318 22.655H21.314ZM21.641 14.281C22.636 14.039 23.6625 13.9523 24.684 14.024C25.2492 15.1184 25.5103 16.3445 25.4399 17.5742C25.3696 18.8039 24.9704 19.9922 24.284 21.015C24.184 21.006 24.084 21.001 23.984 21.001C23.928 21.001 23.872 21.001 23.816 21.001C23.8297 19.7787 23.6422 18.5624 23.261 17.401C22.893 16.2811 22.3473 15.2277 21.645 14.281H21.641ZM25 24C25 24.1978 24.9413 24.3911 24.8315 24.5556C24.7216 24.72 24.5654 24.8482 24.3827 24.9239C24.1999 24.9996 23.9989 25.0194 23.8049 24.9808C23.6109 24.9422 23.4327 24.847 23.2929 24.7071C23.153 24.5673 23.0578 24.3891 23.0192 24.1951C22.9806 24.0011 23.0004 23.8 23.0761 23.6173C23.1518 23.4346 23.28 23.2784 23.4444 23.1685C23.6089 23.0586 23.8022 23 24 23C24.2652 23 24.5196 23.1054 24.7071 23.2929C24.8946 23.4804 25 23.7348 25 24ZM23.312 33.977C22.7467 32.8823 22.4856 31.6559 22.5559 30.4258C22.6263 29.1958 23.0255 28.0071 23.712 26.984C23.8658 26.9998 24.0206 27.0032 24.175 26.994C24.1611 28.2163 24.3486 29.4326 24.73 30.594C25.0994 31.7171 25.6474 32.7733 26.353 33.722C25.3585 33.963 24.3327 34.0491 23.312 33.977V33.977ZM29.342 20.07C30.1312 19.1892 30.7728 18.1866 31.242 17.101C31.9497 17.8415 32.5383 18.6872 32.987 19.608C32.3214 20.6445 31.3897 21.4833 30.2893 22.0369C29.1888 22.5904 27.96 22.8384 26.731 22.755C26.6669 22.6162 26.5924 22.4825 26.508 22.355C27.5713 21.7536 28.5287 20.9816 29.342 20.07V20.07ZM32.3 29.585C31.0694 29.5265 29.8771 29.1389 28.8475 28.4626C27.8178 27.7863 26.9884 26.8461 26.446 25.74C26.5369 25.6133 26.6175 25.4796 26.687 25.34C27.738 25.9623 28.8844 26.4072 30.08 26.657C31.2368 26.8991 32.4251 26.9528 33.599 26.816C33.3119 27.8006 32.8736 28.7348 32.3 29.585V29.585Z" fill="black"/>
</svg>
