<?xml version="1.0" encoding="utf-8"?>
<!-- Generator: Adobe Illustrator 16.0.2, SVG Export Plug-In . SVG Version: 6.00 Build 0)  -->
<!DOCTYPE svg PUBLIC "-//W3C//DTD SVG 1.1//EN" "http://www.w3.org/Graphics/SVG/1.1/DTD/svg11.dtd">
<svg version="1.1" xmlns="http://www.w3.org/2000/svg" xmlns:xlink="http://www.w3.org/1999/xlink" x="0px" y="0px"
	 viewBox="0 0 64 64" style="enable-background:new 0 0 64 64;" xml:space="preserve">
<g id="Guide">
</g>
<g id="_x31_">
	<path d="M11,54c-0.5522,0-1-0.4478-1-1V12H4c-0.5522,0-1-0.4478-1-1s0.4478-1,1-1h7c0.5522,0,1,0.4478,1,1v42
		C12,53.5522,11.5522,54,11,54z"/>
	<path d="M60,47H11c-0.5522,0-1-0.4478-1-1V18c0-0.5522,0.4478-1,1-1h49c0.5522,0,1,0.4478,1,1v28C61,46.5522,60.5522,47,60,47z
		 M12,45h47V19H12V45z"/>
	<path d="M10.9995,33h-3c-0.5522,0-1-0.4478-1-1V22c0-0.5522,0.4478-1,1-1h3c0.5522,0,1,0.4478,1,1v10
		C11.9995,32.5522,11.5518,33,10.9995,33z M8.9995,31h1v-8h-1V31z"/>
	<path d="M23.9995,43c-6.0654,0-11-4.9346-11-11s4.9346-11,11-11s11,4.9346,11,11S30.0649,43,23.9995,43z M23.9995,23
		c-4.9624,0-9,4.0376-9,9s4.0376,9,9,9s9-4.0376,9-9S28.9619,23,23.9995,23z"/>
	<path d="M23.9995,35c-1.6543,0-3-1.3457-3-3s1.3457-3,3-3s3,1.3457,3,3S25.6538,35,23.9995,35z M23.9995,31c-0.5513,0-1,0.4487-1,1
		s0.4487,1,1,1s1-0.4487,1-1S24.5508,31,23.9995,31z"/>
	<path d="M46.9995,43c-6.0654,0-11-4.9346-11-11s4.9346-11,11-11s11,4.9346,11,11S53.0649,43,46.9995,43z M46.9995,23
		c-4.9624,0-9,4.0376-9,9s4.0376,9,9,9s9-4.0376,9-9S51.9619,23,46.9995,23z"/>
	<path d="M53,52H18c-0.5522,0-1-0.4478-1-1v-5c0-0.5522,0.4478-1,1-1h35c0.5522,0,1,0.4478,1,1v5C54,51.5522,53.5522,52,53,52z
		 M19,50h33v-3H19V50z"/>
	<path d="M24.9995,52c-0.5522,0-1-0.4478-1-1v-2c0-0.5522,0.4478-1,1-1s1,0.4478,1,1v2C25.9995,51.5522,25.5518,52,24.9995,52z"/>
	<path d="M31.9995,52c-0.5522,0-1-0.4478-1-1v-2c0-0.5522,0.4478-1,1-1s1,0.4478,1,1v2C32.9995,51.5522,32.5518,52,31.9995,52z"/>
	<path d="M38.9995,52c-0.5522,0-1-0.4478-1-1v-2c0-0.5522,0.4478-1,1-1s1,0.4478,1,1v2C39.9995,51.5522,39.5518,52,38.9995,52z"/>
	<path d="M45.9995,52c-0.5522,0-1-0.4478-1-1v-2c0-0.5522,0.4478-1,1-1s1,0.4478,1,1v2C46.9995,51.5522,46.5518,52,45.9995,52z"/>
	<path d="M24,31c-0.5522,0-1-0.4478-1-1v-2.5859l-3.707-3.707c-0.3906-0.3906-0.3906-1.0234,0-1.4141s1.0234-0.3906,1.4141,0l4,4
		C24.8945,26.4805,25,26.7349,25,27v3C25,30.5522,24.5522,31,24,31z"/>
	<path d="M14.9995,37c-0.2559,0-0.5117-0.0977-0.707-0.293c-0.3906-0.3906-0.3906-1.0234,0-1.4141l4-4
		C18.48,31.1055,18.7344,31,18.9995,31h3c0.5522,0,1,0.4478,1,1s-0.4478,1-1,1h-2.5859l-3.707,3.707
		C15.5112,36.9023,15.2554,37,14.9995,37z"/>
	<path d="M27.9995,42c-0.2559,0-0.5117-0.0977-0.707-0.293l-4-4c-0.1875-0.1875-0.293-0.4419-0.293-0.707v-3c0-0.5522,0.4478-1,1-1
		s1,0.4478,1,1v2.5859l3.707,3.707c0.3906,0.3906,0.3906,1.0234,0,1.4141C28.5112,41.9023,28.2554,42,27.9995,42z"/>
	<path d="M28.9995,33h-3c-0.5522,0-1-0.4478-1-1s0.4478-1,1-1h2.5859l3.707-3.707c0.3906-0.3906,1.0234-0.3906,1.4141,0
		s0.3906,1.0234,0,1.4141l-4,4C29.519,32.8945,29.2646,33,28.9995,33z"/>
	<path d="M46.9995,35c-1.6543,0-3-1.3457-3-3s1.3457-3,3-3s3,1.3457,3,3S48.6538,35,46.9995,35z M46.9995,31c-0.5513,0-1,0.4487-1,1
		s0.4487,1,1,1s1-0.4487,1-1S47.5508,31,46.9995,31z"/>
	<path d="M47,31c-0.5522,0-1-0.4478-1-1v-2.5859l-3.707-3.707c-0.3906-0.3906-0.3906-1.0234,0-1.4141s1.0234-0.3906,1.4141,0l4,4
		C47.8945,26.4805,48,26.7349,48,27v3C48,30.5522,47.5522,31,47,31z"/>
	<path d="M37.9995,37c-0.2559,0-0.5117-0.0977-0.707-0.293c-0.3906-0.3906-0.3906-1.0234,0-1.4141l4-4
		C41.48,31.1055,41.7344,31,41.9995,31h3c0.5522,0,1,0.4478,1,1s-0.4478,1-1,1h-2.5859l-3.707,3.707
		C38.5112,36.9023,38.2554,37,37.9995,37z"/>
	<path d="M50.9995,42c-0.2559,0-0.5117-0.0977-0.707-0.293l-4-4c-0.1875-0.1875-0.293-0.4419-0.293-0.707v-3c0-0.5522,0.4478-1,1-1
		s1,0.4478,1,1v2.5859l3.707,3.707c0.3906,0.3906,0.3906,1.0234,0,1.4141C51.5112,41.9023,51.2554,42,50.9995,42z"/>
	<path d="M51.9995,33h-3c-0.5522,0-1-0.4478-1-1s0.4478-1,1-1h2.5859l3.707-3.707c0.3906-0.3906,1.0234-0.3906,1.4141,0
		s0.3906,1.0234,0,1.4141l-4,4C52.519,32.8945,52.2646,33,51.9995,33z"/>
</g>
</svg>
