<?xml version="1.0" encoding="UTF-8" standalone="no"?> <svg viewBox="0 0 64 64" fill="none" xmlns="http://www.w3.org/2000/svg">
<path d="M61.3 33V21C61.3 20.7 61.2 20.4 60.9 20.1L48.8 8.00005C48 7.20005 46.9 6.80005 45.8 6.80005H18.2C17.1 6.80005 16 7.30005 15.2 8.00005L3.09998 20.1C2.89998 20.3 2.79998 20.7 2.69998 21V33C2.69998 35 4.09998 36.7 5.99998 37.1L2.99998 40.1C2.79998 40.3 2.69998 40.7 2.59998 41V53C2.59998 55.3 4.49998 57.3 6.89998 57.3H56.9C59.2 57.3 61.2 55.4 61.2 53V41C61.2 40.7 61.1 40.4 60.8 40.1L57.8 37.1C59.8 36.7 61.3 35 61.3 33ZM17 9.80005C17.3 9.50005 17.8 9.30005 18.2 9.30005H45.7C46.2 9.30005 46.6 9.50005 46.9 9.80005L56.9 19.8H6.99998L17 9.80005ZM54.5 37.3L57 39.8H6.99998L9.49998 37.3H54.5ZM58.8 53C58.8 54 58 54.8 57 54.8H6.99998C5.99998 54.8 5.19998 54 5.19998 53V42.3H58.7V53H58.8ZM58.8 33C58.8 34 58 34.8 57 34.8H6.99998C5.99998 34.8 5.19998 34 5.19998 33V22.3H58.7V33H58.8Z" fill="black"/>
<path d="M12 49.2999H15C15.7 49.2999 16.3 48.7 16.3 48C16.3 47.3 15.7 46.7 15 46.7H12C11.3 46.7 10.7 47.3 10.7 48C10.7 48.7 11.3 49.2999 12 49.2999Z" fill="black"/>
<path d="M20 49.2999H29.4C30.1 49.2999 30.7 48.7 30.7 48C30.7 47.3 30.1 46.7 29.4 46.7H20C19.3 46.7 18.7 47.3 18.7 48C18.7 48.7 19.3 49.2999 20 49.2999Z" fill="black"/>
<path d="M12 29.2999H15C15.7 29.2999 16.3 28.7 16.3 28C16.3 27.3 15.7 26.7 15 26.7H12C11.3 26.7 10.7 27.3 10.7 28C10.7 28.7 11.3 29.2999 12 29.2999Z" fill="black"/>
<path d="M20 29.2999H29.4C30.1 29.2999 30.7 28.7 30.7 28C30.7 27.3 30.1 26.7 29.4 26.7H20C19.3 26.7 18.7 27.3 18.7 28C18.7 28.7 19.3 29.2999 20 29.2999Z" fill="black"/>
</svg>
